<svg xmlns="http://www.w3.org/2000/svg" xmlns:xlink="http://www.w3.org/1999/xlink" contentStyleType="text/css" height="198px" preserveAspectRatio="none" style="width:980px;height:198px;background:#FFFFFF;" version="1.1" viewBox="0 0 980 198" width="980px" zoomAndPan="magnify"><!-- GENERATED from cat-harness/uml/overview/folio-assistant-core/core-library.puml by cat-harness/scripts/gen-uml-overview.ts (PlantUML 1.2024.7) --><!-- puml-sha256: 85c9ede583ff165f7c456c6634888d8698ad883820c986b5be4b7623c1ee52a4 --><defs/><g><rect fill="#FFFFFF" height="175.4531" rx="2.5" ry="2.5" style="stroke:#000000;stroke-width:1.0;" width="957.6133" x="17" y="17"/><text fill="#000000" font-family="Verdana" font-size="14" font-style="italic" lengthAdjust="spacing" textLength="62.1729" x="464.7202" y="31.9951">&#171;library&#187;</text><text fill="#000000" font-family="Verdana" font-size="14" font-weight="bold" lengthAdjust="spacing" textLength="250.1475" x="370.7329" y="48.292">folio-assistant-core/core-library</text><!--class folio_assistant_core_core_library_folio_document_images_v1_folio_document_images_v1--><g id="elem_folio_assistant_core_core_library_folio_document_images_v1_folio_document_images_v1"><rect codeLine="11" fill="#F4F4F1" height="113.4531" id="folio_assistant_core_core_library_folio_document_images_v1_folio_document_images_v1" rx="2.5" ry="2.5" style="stroke:#000000;stroke-width:1.0;" width="304.585" x="32" y="64"/><ellipse cx="88.8486" cy="84.1328" fill="#FFFFFF" rx="9" ry="9" style="stroke:#000000;stroke-width:1.0;"/><path d="M91.8174,89.7734 Q91.2393,90.0703 90.5986,90.2109 Q89.958,90.3672 89.2549,90.3672 Q86.7549,90.3672 85.4268,88.7266 Q84.1143,87.0703 84.1143,83.9453 Q84.1143,80.8203 85.4268,79.1641 Q86.7549,77.5078 89.2549,77.5078 Q89.958,77.5078 90.5986,77.6641 Q91.2549,77.8203 91.8174,78.1172 L91.8174,80.8359 Q91.1924,80.2578 90.5986,79.9922 Q90.0049,79.7109 89.3799,79.7109 Q88.0361,79.7109 87.3486,80.7891 Q86.6611,81.8516 86.6611,83.9453 Q86.6611,86.0391 87.3486,87.1172 Q88.0361,88.1797 89.3799,88.1797 Q90.0049,88.1797 90.5986,87.9141 Q91.1924,87.6328 91.8174,87.0547 L91.8174,89.7734 Z " fill="#000000"/><text fill="#000000" font-family="Verdana" font-size="12" font-style="italic" lengthAdjust="spacing" textLength="183.9902" x="106.0474" y="80.1387">&#171;json: ImagesSidecarSchema&#187;</text><text fill="#000000" font-family="Verdana" font-size="14" lengthAdjust="spacing" textLength="183.3877" x="106.3486" y="95.9639">folio-document-images/v1</text><line style="stroke:#000000;stroke-width:1.0;" x1="33" x2="335.585" y1="104.2656" y2="104.2656"/><text fill="#000000" font-family="Verdana" font-size="14" lengthAdjust="spacing" textLength="292.585" x="38" y="121.2607">$schema [1] : 'folio-document-images/v1'</text><text fill="#000000" font-family="Verdana" font-size="14" lengthAdjust="spacing" textLength="123.0127" x="38" y="137.5576">doc_id [1] : string</text><text fill="#000000" font-family="Verdana" font-size="14" lengthAdjust="spacing" textLength="182.0068" x="38" y="153.8545">images [1] : object[] | null</text><text fill="#000000" font-family="Verdana" font-size="14" lengthAdjust="spacing" textLength="249.5801" x="38" y="170.1514">undetermined_reason [0..1] : string</text></g><!--class folio_assistant_core_core_library_folio_image_verdicts_v1--><g id="elem_folio_assistant_core_core_library_folio_image_verdicts_v1"><rect codeLine="17" fill="#F4F4F1" height="113.4531" id="folio_assistant_core_core_library_folio_image_verdicts_v1" rx="2.5" ry="2.5" style="stroke:#000000;stroke-width:1.0;" width="603.0283" x="356.585" y="64"/><ellipse cx="573.6646" cy="84.1328" fill="#FFFFFF" rx="9" ry="9" style="stroke:#000000;stroke-width:1.0;"/><path d="M576.6333,89.7734 Q576.0552,90.0703 575.4146,90.2109 Q574.7739,90.3672 574.0708,90.3672 Q571.5708,90.3672 570.2427,88.7266 Q568.9302,87.0703 568.9302,83.9453 Q568.9302,80.8203 570.2427,79.1641 Q571.5708,77.5078 574.0708,77.5078 Q574.7739,77.5078 575.4146,77.6641 Q576.0708,77.8203 576.6333,78.1172 L576.6333,80.8359 Q576.0083,80.2578 575.4146,79.9922 Q574.8208,79.7109 574.1958,79.7109 Q572.8521,79.7109 572.1646,80.7891 Q571.4771,81.8516 571.4771,83.9453 Q571.4771,86.0391 572.1646,87.1172 Q572.8521,88.1797 574.1958,88.1797 Q574.8208,88.1797 575.4146,87.9141 Q576.0083,87.6328 576.6333,87.0547 L576.6333,89.7734 Z " fill="#000000"/><text fill="#000000" font-family="Verdana" font-size="12" font-style="italic" lengthAdjust="spacing" textLength="97.2305" x="623.2339" y="80.1387">&#171;ts: VerdictFile&#187;</text><text fill="#000000" font-family="Verdana" font-size="14" lengthAdjust="spacing" textLength="161.3691" x="591.1646" y="95.9639">folio-image-verdicts/v1</text><line style="stroke:#000000;stroke-width:1.0;" x1="357.585" x2="958.6133" y1="104.2656" y2="104.2656"/><text fill="#000000" font-family="Verdana" font-size="14" lengthAdjust="spacing" textLength="193.9287" x="362.585" y="121.2607">inspected_by [1] : unknown</text><text fill="#000000" font-family="Verdana" font-size="14" lengthAdjust="spacing" textLength="167.3984" x="362.585" y="137.5576">inspected_at [1] : string</text><text fill="#000000" font-family="Verdana" font-size="14" lengthAdjust="spacing" textLength="591.0283" x="362.585" y="153.8545">attribution [0..1] : Record&lt;string, { inspected_by: unknown; inspected_at: string }&gt;</text><text fill="#000000" font-family="Verdana" font-size="14" lengthAdjust="spacing" textLength="387.3105" x="362.585" y="170.1514">verdicts [1] : Record&lt;string, Record&lt;string, Verdict&gt;&gt;</text></g><!--SRC=[bLBHIiCm57tlLzofu8kR5doQe-2Bi5S7lenHRfExBZPDIf9Ewjo_6zDqR9CXKWZDlUUUS-vfHut1iaQGsEdM0Sag6RaDrGIDHA4IMmdLeC4Qc4HhdvqpecWTpPbM2_59y704iHla-aEe4jOeBHrr6cGLbhHmdIGmn1ogKbAo4Po0wiPrK9FRQ6wJ94BXQgsbq6ClAgo7kp7JXkv_Zh4KXK7JNG5QQAeo3yZyWCn_GFqHaJ2RnRSiWrq2_JA31DUihSahYDeBs_jj6fZ_P8swmtZUZ-VRz6B3-tYtMarX7YeBlpv3is0-SFJEhjUF_ac3Gu0R6-gmJ5SmXTjBNcy3sDTpmIFM-e-aob3lOR6kYtSV_N85Nw1QAGEWLPmScLeeuhaXzFPW-J2Pd1BjppCBlECj6IwO-tTaOJeVfljWd9t2Mrzv4P9-nI6KRRnxxxBeuZwjgfJ-K6TjTBzZmFZVYkFjNibRuxCUTWUx4ua3-zC9zS0A-omG3pj4oJFAisjSByj2ella6m00]--></g></svg>