<svg xmlns="http://www.w3.org/2000/svg" xmlns:xlink="http://www.w3.org/1999/xlink" contentStyleType="text/css" height="1143px" preserveAspectRatio="none" style="width:2194px;height:1143px;background:#FFFFFF;" version="1.1" viewBox="0 0 2194 1143" width="2194px" zoomAndPan="magnify"><!-- GENERATED from cat-harness/uml/overview/fhir-harness.puml (landscape view, landscapeOf) by cat-harness/scripts/gen-uml-overview.ts (PlantUML 1.2024.7) --><!-- puml-sha256: fa23a2bdc19ada894553e98800ee3bd62f91e6d2b5501877a3aaa80a3ec656b3 --><defs/><g><rect fill="#FFFFFF" height="197.1563" rx="2.5" ry="2.5" style="stroke:#000000;stroke-width:1.0;" width="325.2607" x="1457.3813" y="355.7891"/><text fill="#000000" font-family="Verdana" font-size="14" font-style="italic" lengthAdjust="spacing" textLength="146.3438" x="1546.8398" y="371.3516">&#171;translation-sources&#187;</text><text fill="#000000" font-family="Verdana" font-size="14" font-weight="bold" lengthAdjust="spacing" textLength="264.708" x="1487.6577" y="388.291">fhir-harness/fhir-harness-translations</text><rect fill="#FFFFFF" height="214.0957" rx="2.5" ry="2.5" style="stroke:#000000;stroke-width:1.0;" width="254.0713" x="1896.7361" y="338.8496"/><text fill="#000000" font-family="Verdana" font-size="14" font-style="italic" lengthAdjust="spacing" textLength="82.3936" x="1982.575" y="354.4121">&#171;validators&#187;</text><text fill="#000000" font-family="Verdana" font-size="14" font-weight="bold" lengthAdjust="spacing" textLength="251.5283" x="1898.0076" y="371.3516">fhir-harness/fhir-harness-validators</text><rect fill="#FFFFFF" height="535.9453" rx="2.5" ry="2.5" style="stroke:#000000;stroke-width:1.0;" width="329.8271" x="34.1191" y="17"/><text fill="#000000" font-family="Verdana" font-size="14" font-style="italic" lengthAdjust="spacing" textLength="84.9775" x="156.5439" y="32.5625">&#171;typologies&#187;</text><text fill="#000000" font-family="Verdana" font-size="14" font-weight="bold" lengthAdjust="spacing" textLength="255.377" x="71.3442" y="49.502">fhir-harness/fhir-harness-typologies</text><rect fill="#FFFFFF" height="180.2168" rx="2.5" ry="2.5" style="stroke:#000000;stroke-width:1.0;" width="317.4951" x="979.7324" y="372.7285"/><text fill="#000000" font-family="Verdana" font-size="14" font-style="italic" lengthAdjust="spacing" textLength="58.7002" x="1109.1299" y="388.291">&#171;library&#187;</text><text fill="#000000" font-family="Verdana" font-size="14" font-weight="bold" lengthAdjust="spacing" textLength="135.4199" x="1070.77" y="405.2305">fhir-harness/library</text><rect fill="#FFFFFF" height="104.459" rx="2.5" ry="2.5" style="stroke:#000000;stroke-width:1.0;" width="575.7861" x="383.9463" y="232.7432"/><text fill="#000000" font-family="Verdana" font-size="14" font-style="italic" lengthAdjust="spacing" textLength="48.9521" x="647.3633" y="248.3057">&#171;skills&#187;</text><text fill="#000000" font-family="Verdana" font-size="14" font-weight="bold" lengthAdjust="spacing" textLength="175.752" x="583.9634" y="265.2451">fhir-harness/fhir-ig-skills</text><rect fill="#FFFFFF" height="544.2871" rx="2.5" ry="2.5" style="stroke:#000000;stroke-width:1.0;" width="437.9023" x="1401.0605" y="592.9453"/><text fill="#000000" font-family="Verdana" font-size="14" font-style="italic" lengthAdjust="spacing" textLength="48.4873" x="1595.7681" y="608.5078">&#171;tools&#187;</text><text fill="#000000" font-family="Verdana" font-size="14" font-weight="bold" lengthAdjust="spacing" textLength="174.501" x="1532.7612" y="625.4473">fhir-harness/fhir-ig-tools</text><rect fill="#FFFFFF" height="104.459" rx="2.5" ry="2.5" style="stroke:#000000;stroke-width:1.0;" width="329.6177" x="1858.9629" y="592.9453"/><text fill="#000000" font-family="Verdana" font-size="14" font-style="italic" lengthAdjust="spacing" textLength="49.3623" x="1999.0906" y="608.5078">&#171;code&#187;</text><text fill="#000000" font-family="Verdana" font-size="14" font-weight="bold" lengthAdjust="spacing" textLength="187.9336" x="1929.8049" y="625.4473">fhir-harness/fhir-ig-scripts</text><rect fill="#FFFFFF" height="468.1875" rx="2.5" ry="2.5" style="stroke:#000000;stroke-width:1.0;" width="364.0654" x="17" y="592.9453"/><text fill="#000000" font-family="Verdana" font-size="14" font-style="italic" lengthAdjust="spacing" textLength="84.8477" x="156.6089" y="608.5078">&#171;processes&#187;</text><text fill="#000000" font-family="Verdana" font-size="14" font-weight="bold" lengthAdjust="spacing" textLength="254.7617" x="71.6519" y="625.4473">fhir-harness/fhir-harness-processes</text><rect fill="#FFFFFF" height="231.0352" rx="2.5" ry="2.5" style="stroke:#000000;stroke-width:1.0;" width="485.1611" x="895.8994" y="592.9453"/><text fill="#000000" font-family="Verdana" font-size="14" font-style="italic" lengthAdjust="spacing" textLength="33.4893" x="1121.7354" y="608.5078">&#171;qa&#187;</text><text fill="#000000" font-family="Verdana" font-size="14" font-weight="bold" lengthAdjust="spacing" textLength="108.001" x="1084.4795" y="625.4473">fhir-harness/qa</text><!--class fhir_harness_fhir_harness_translations_TranslationConfig--><g id="elem_fhir_harness_fhir_harness_translations_TranslationConfig"><rect codeLine="11" fill="#F4F4F1" height="134.1563" id="fhir_harness_fhir_harness_translations_TranslationConfig" rx="2.5" ry="2.5" style="stroke:#000000;stroke-width:1.0;" width="295.2607" x="1472.3813" y="403.7891"/><ellipse cx="1521.7256" cy="424.5186" fill="#FFFFFF" rx="9" ry="9" style="stroke:#000000;stroke-width:1.0;"/><path d="M1524.6943,430.1592 Q1524.1162,430.4561 1523.4756,430.5967 Q1522.835,430.7529 1522.1318,430.7529 Q1519.6318,430.7529 1518.3037,429.1123 Q1516.9912,427.4561 1516.9912,424.3311 Q1516.9912,421.2061 1518.3037,419.5498 Q1519.6318,417.8936 1522.1318,417.8936 Q1522.835,417.8936 1523.4756,418.0498 Q1524.1318,418.2061 1524.6943,418.5029 L1524.6943,421.2217 Q1524.0693,420.6436 1523.4756,420.3779 Q1522.8818,420.0967 1522.2568,420.0967 Q1520.9131,420.0967 1520.2256,421.1748 Q1519.5381,422.2373 1519.5381,424.3311 Q1519.5381,426.4248 1520.2256,427.5029 Q1520.9131,428.5654 1522.2568,428.5654 Q1522.8818,428.5654 1523.4756,428.2998 Q1524.0693,428.0186 1524.6943,427.4404 L1524.6943,430.1592 Z " fill="#000000"/><text fill="#000000" font-family="Verdana" font-size="12" font-style="italic" lengthAdjust="spacing" textLength="193.0723" x="1537.2256" y="420.4141">&#171;json: TranslationConfigSchema&#187;</text><text fill="#000000" font-family="Verdana" font-size="14" lengthAdjust="spacing" textLength="117.7695" x="1574.877" y="436.8711">TranslationConfig</text><line style="stroke:#000000;stroke-width:1.0;" x1="1473.3813" x2="1766.6421" y1="445.248" y2="445.248"/><text fill="#000000" font-family="Verdana" font-size="14" lengthAdjust="spacing" textLength="175.8887" x="1478.3813" y="462.8105">defaultLocale [0..1] : string</text><text fill="#000000" font-family="Verdana" font-size="14" lengthAdjust="spacing" textLength="216.5762" x="1478.3813" y="479.75">supportedLocales [0..*] : string[]</text><text fill="#000000" font-family="Verdana" font-size="14" lengthAdjust="spacing" textLength="174.166" x="1478.3813" y="496.6895">translationDir [0..1] : string</text><text fill="#000000" font-family="Verdana" font-size="14" lengthAdjust="spacing" textLength="283.2607" x="1478.3813" y="513.6289">potGranularity [0..1] : block | chapter | folio</text><text fill="#000000" font-family="Verdana" font-size="14" lengthAdjust="spacing" textLength="205.9053" x="1478.3813" y="530.5684">officialRequired [0..1] : boolean</text></g><!--class fhir_harness_fhir_harness_validators_folio_validator_v1_folio_validator_v1--><g id="elem_fhir_harness_fhir_harness_validators_folio_validator_v1_folio_validator_v1"><rect codeLine="20" fill="#F4F4F1" height="151.0957" id="fhir_harness_fhir_harness_validators_folio_validator_v1_folio_validator_v1" rx="2.5" ry="2.5" style="stroke:#000000;stroke-width:1.0;" width="224.0713" x="1911.7361" y="386.8496"/><ellipse cx="1936.861" cy="407.5791" fill="#FFFFFF" rx="9" ry="9" style="stroke:#000000;stroke-width:1.0;"/><path d="M1939.8298,413.2197 Q1939.2517,413.5166 1938.611,413.6572 Q1937.9704,413.8135 1937.2673,413.8135 Q1934.7673,413.8135 1933.4392,412.1729 Q1932.1267,410.5166 1932.1267,407.3916 Q1932.1267,404.2666 1933.4392,402.6104 Q1934.7673,400.9541 1937.2673,400.9541 Q1937.9704,400.9541 1938.611,401.1104 Q1939.2673,401.2666 1939.8298,401.5635 L1939.8298,404.2822 Q1939.2048,403.7041 1938.611,403.4385 Q1938.0173,403.1572 1937.3923,403.1572 Q1936.0485,403.1572 1935.361,404.2354 Q1934.6735,405.2979 1934.6735,407.3916 Q1934.6735,409.4854 1935.361,410.5635 Q1936.0485,411.626 1937.3923,411.626 Q1938.0173,411.626 1938.611,411.3604 Q1939.2048,411.0791 1939.8298,410.501 L1939.8298,413.2197 Z " fill="#000000"/><text fill="#000000" font-family="Verdana" font-size="12" font-style="italic" lengthAdjust="spacing" textLength="173.127" x="1949.5555" y="403.4746">&#171;json: ValidatorNodeSchema&#187;</text><text fill="#000000" font-family="Verdana" font-size="14" lengthAdjust="spacing" textLength="110.9883" x="1980.6248" y="419.9316">folio-validator/v1</text><line style="stroke:#000000;stroke-width:1.0;" x1="1912.7361" x2="2134.8074" y1="428.3086" y2="428.3086"/><text fill="#000000" font-family="Verdana" font-size="14" lengthAdjust="spacing" textLength="212.0713" x="1917.7361" y="445.8711">$schema [1] : 'folio-validator/v1'</text><text fill="#000000" font-family="Verdana" font-size="14" lengthAdjust="spacing" textLength="81.2041" x="1917.7361" y="462.8105">id [1] : string</text><text fill="#000000" font-family="Verdana" font-size="14" lengthAdjust="spacing" textLength="131.9268" x="1917.7361" y="479.75">validates [1] : object</text><text fill="#000000" font-family="Verdana" font-size="14" lengthAdjust="spacing" textLength="121.1943" x="1917.7361" y="496.6895">schema [1] : string</text><text fill="#000000" font-family="Verdana" font-size="14" lengthAdjust="spacing" textLength="126.7109" x="1917.7361" y="513.6289">pages [0..1] : string</text><text fill="#000000" font-family="Verdana" font-size="14" lengthAdjust="spacing" textLength="143.3223" x="1917.7361" y="530.5684">rationale [0..1] : string</text></g><!--class fhir_harness_fhir_harness_typologies_folio_graph_typology_v1_folio_graph_typology_v1--><g id="elem_fhir_harness_fhir_harness_typologies_folio_graph_typology_v1_folio_graph_typology_v1"><rect codeLine="30" fill="#F4F4F1" height="472.9453" id="fhir_harness_fhir_harness_typologies_folio_graph_typology_v1_folio_graph_typology_v1" rx="2.5" ry="2.5" style="stroke:#000000;stroke-width:1.0;" width="299.8271" x="49.1191" y="65"/><ellipse cx="92.3647" cy="85.7295" fill="#FFFFFF" rx="9" ry="9" style="stroke:#000000;stroke-width:1.0;"/><path d="M95.3335,91.3701 Q94.7554,91.667 94.1147,91.8076 Q93.4741,91.9639 92.771,91.9639 Q90.271,91.9639 88.9429,90.3232 Q87.6304,88.667 87.6304,85.542 Q87.6304,82.417 88.9429,80.7607 Q90.271,79.1045 92.771,79.1045 Q93.4741,79.1045 94.1147,79.2607 Q94.771,79.417 95.3335,79.7139 L95.3335,82.4326 Q94.7085,81.8545 94.1147,81.5889 Q93.521,81.3076 92.896,81.3076 Q91.5522,81.3076 90.8647,82.3857 Q90.1772,83.4482 90.1772,85.542 Q90.1772,87.6357 90.8647,88.7139 Q91.5522,89.7764 92.896,89.7764 Q93.521,89.7764 94.1147,89.5107 Q94.7085,89.2295 95.3335,88.6514 L95.3335,91.3701 Z " fill="#000000"/><text fill="#000000" font-family="Verdana" font-size="12" font-style="italic" lengthAdjust="spacing" textLength="209.8359" x="107.8647" y="81.625">&#171;json: GraphTypologyNodeSchema&#187;</text><text fill="#000000" font-family="Verdana" font-size="14" lengthAdjust="spacing" textLength="156.4609" x="134.5522" y="98.082">folio-graph-typology/v1</text><line style="stroke:#000000;stroke-width:1.0;" x1="50.1191" x2="347.9463" y1="106.459" y2="106.459"/><text fill="#000000" font-family="Verdana" font-size="14" lengthAdjust="spacing" textLength="257.5439" x="55.1191" y="124.0215">$schema [1] : 'folio-graph-typology/v1'</text><text fill="#000000" font-family="Verdana" font-size="14" lengthAdjust="spacing" textLength="97.1592" x="55.1191" y="140.9609">kind [1] : string</text><text fill="#000000" font-family="Verdana" font-size="14" lengthAdjust="spacing" textLength="110.2432" x="55.1191" y="157.9004">title [0..1] : string</text><text fill="#000000" font-family="Verdana" font-size="14" lengthAdjust="spacing" textLength="119.4238" x="55.1191" y="174.8398">layer [0..1] : 'core'</text><text fill="#000000" font-family="Verdana" font-size="14" lengthAdjust="spacing" textLength="153.2412" x="55.1191" y="191.7793">perInstance [0..1] : true</text><text fill="#000000" font-family="Verdana" font-size="14" lengthAdjust="spacing" textLength="156.4951" x="55.1191" y="208.7188">renderable [1] : boolean</text><text fill="#000000" font-family="Verdana" font-size="14" lengthAdjust="spacing" textLength="187.8994" x="55.1191" y="225.6582">recordsWork [0..1] : boolean</text><text fill="#000000" font-family="Verdana" font-size="14" lengthAdjust="spacing" textLength="287.8271" x="55.1191" y="242.5977">holds [1] : content | context | state | derived</text><text fill="#000000" font-family="Verdana" font-size="14" lengthAdjust="spacing" textLength="130.4365" x="55.1191" y="259.5371">summary [1] : string</text><text fill="#000000" font-family="Verdana" font-size="14" lengthAdjust="spacing" textLength="138.0928" x="55.1191" y="276.4766">schema [0..1] : string</text><text fill="#000000" font-family="Verdana" font-size="14" lengthAdjust="spacing" textLength="143.3291" x="55.1191" y="293.416">validator [0..1] : string</text><text fill="#000000" font-family="Verdana" font-size="14" lengthAdjust="spacing" textLength="236.4209" x="55.1191" y="310.3555">validatorNotApplicable [0..1] : string</text><text fill="#000000" font-family="Verdana" font-size="14" lengthAdjust="spacing" textLength="231.3076" x="55.1191" y="327.2949">nodeSchemas [0..1] : map&lt;object&gt;</text><text fill="#000000" font-family="Verdana" font-size="14" lengthAdjust="spacing" textLength="183.1006" x="55.1191" y="344.2344">declarationFile [0..1] : string</text><text fill="#000000" font-family="Verdana" font-size="14" lengthAdjust="spacing" textLength="177.6592" x="55.1191" y="361.1738">concernGroups [0..1] : true</text><text fill="#000000" font-family="Verdana" font-size="14" lengthAdjust="spacing" textLength="125.5078" x="55.1191" y="378.1133">within [0..1] : string</text><text fill="#000000" font-family="Verdana" font-size="14" lengthAdjust="spacing" textLength="131.0518" x="55.1191" y="395.0527">avatar [0..1] : object</text><text fill="#000000" font-family="Verdana" font-size="14" lengthAdjust="spacing" textLength="134.0869" x="55.1191" y="411.9922">tileIcon [0..1] : string</text><text fill="#000000" font-family="Verdana" font-size="14" lengthAdjust="spacing" textLength="145.2432" x="55.1191" y="428.9316">published [0..1] : false</text><text fill="#000000" font-family="Verdana" font-size="14" lengthAdjust="spacing" textLength="150.8896" x="55.1191" y="445.8711">skillBearing [0..1] : true</text><text fill="#000000" font-family="Verdana" font-size="14" lengthAdjust="spacing" textLength="143.6982" x="55.1191" y="462.8105">kgContent [0..1] : true</text><text fill="#000000" font-family="Verdana" font-size="14" lengthAdjust="spacing" textLength="160.1318" x="55.1191" y="479.75">description [0..1] : string</text><text fill="#000000" font-family="Verdana" font-size="14" lengthAdjust="spacing" textLength="189.5195" x="55.1191" y="496.6895">renderableNote [0..1] : string</text><text fill="#000000" font-family="Verdana" font-size="14" lengthAdjust="spacing" textLength="136.0215" x="55.1191" y="513.6289">anyLayer [0..1] : true</text><text fill="#000000" font-family="Verdana" font-size="14" lengthAdjust="spacing" textLength="143.3223" x="55.1191" y="530.5684">rationale [0..1] : string</text></g><!--class fhir_harness_library_folio_document_images_v1_folio_document_images_v1--><g id="elem_fhir_harness_library_folio_document_images_v1_folio_document_images_v1"><rect codeLine="59" fill="#F4F4F1" height="117.2168" id="fhir_harness_library_folio_document_images_v1_folio_document_images_v1" rx="2.5" ry="2.5" style="stroke:#000000;stroke-width:1.0;" width="287.4951" x="994.7324" y="420.7285"/><ellipse cx="1047.5239" cy="441.458" fill="#FFFFFF" rx="9" ry="9" style="stroke:#000000;stroke-width:1.0;"/><path d="M1050.4927,447.0986 Q1049.9146,447.3955 1049.2739,447.5361 Q1048.6333,447.6924 1047.9302,447.6924 Q1045.4302,447.6924 1044.1021,446.0518 Q1042.7896,444.3955 1042.7896,441.2705 Q1042.7896,438.1455 1044.1021,436.4893 Q1045.4302,434.833 1047.9302,434.833 Q1048.6333,434.833 1049.2739,434.9893 Q1049.9302,435.1455 1050.4927,435.4424 L1050.4927,438.1611 Q1049.8677,437.583 1049.2739,437.3174 Q1048.6802,437.0361 1048.0552,437.0361 Q1046.7114,437.0361 1046.0239,438.1143 Q1045.3364,439.1768 1045.3364,441.2705 Q1045.3364,443.3643 1046.0239,444.4424 Q1046.7114,445.5049 1048.0552,445.5049 Q1048.6802,445.5049 1049.2739,445.2393 Q1049.8677,444.958 1050.4927,444.3799 L1050.4927,447.0986 Z " fill="#000000"/><text fill="#000000" font-family="Verdana" font-size="12" font-style="italic" lengthAdjust="spacing" textLength="176.0859" x="1064.187" y="437.3535">&#171;json: ImagesSidecarSchema&#187;</text><text fill="#000000" font-family="Verdana" font-size="14" lengthAdjust="spacing" textLength="174.4121" x="1065.0239" y="453.8105">folio-document-images/v1</text><line style="stroke:#000000;stroke-width:1.0;" x1="995.7324" x2="1281.2275" y1="462.1875" y2="462.1875"/><text fill="#000000" font-family="Verdana" font-size="14" lengthAdjust="spacing" textLength="275.4951" x="1000.7324" y="479.75">$schema [1] : 'folio-document-images/v1'</text><text fill="#000000" font-family="Verdana" font-size="14" lengthAdjust="spacing" textLength="112.5537" x="1000.7324" y="496.6895">doc_id [1] : string</text><text fill="#000000" font-family="Verdana" font-size="14" lengthAdjust="spacing" textLength="166.5781" x="1000.7324" y="513.6289">images [1] : object[] | null</text><text fill="#000000" font-family="Verdana" font-size="14" lengthAdjust="spacing" textLength="229.8311" x="1000.7324" y="530.5684">undetermined_reason [0..1] : string</text></g><g id="elem_n_fhir_harness_fhir_ig_skills_skills"><path d="M398.9463,280.7432 L398.9463,322.2021 L944.7324,322.2021 L944.7324,290.7432 L934.7324,280.7432 L398.9463,280.7432 " fill="#FFFFFF" style="stroke:#000000;stroke-width:1.0;"/><path d="M934.7324,280.7432 L934.7324,290.7432 L944.7324,290.7432 L934.7324,280.7432 " fill="#FFFFFF" style="stroke:#000000;stroke-width:1.0;"/><text fill="#000000" font-family="Verdana" font-size="13" lengthAdjust="spacing" textLength="197.2534" x="404.9463" y="298.3369">skills: no node schema declared</text><text fill="#000000" font-family="Verdana" font-size="13" lengthAdjust="spacing" textLength="524.7861" x="404.9463" y="314.0664">(no node here carries a $schema family skills names (4 named): could not determine)</text></g><!--class fhir_harness_fhir_ig_tools_Remedy--><g id="elem_fhir_harness_fhir_ig_tools_Remedy"><rect codeLine="70" fill="#EEE9F5" height="117.2168" id="fhir_harness_fhir_ig_tools_Remedy" rx="2.5" ry="2.5" style="stroke:#000000;stroke-width:1.0;" width="193.9512" x="1416.0605" y="1005.0156"/><ellipse cx="1429.0605" cy="1025.7451" fill="#FFFFFF" rx="9" ry="9" style="stroke:#000000;stroke-width:1.0;"/><path d="M1432.0293,1031.3857 Q1431.4512,1031.6826 1430.8105,1031.8232 Q1430.1699,1031.9795 1429.4668,1031.9795 Q1426.9668,1031.9795 1425.6387,1030.3389 Q1424.3262,1028.6826 1424.3262,1025.5576 Q1424.3262,1022.4326 1425.6387,1020.7764 Q1426.9668,1019.1201 1429.4668,1019.1201 Q1430.1699,1019.1201 1430.8105,1019.2764 Q1431.4668,1019.4326 1432.0293,1019.7295 L1432.0293,1022.4482 Q1431.4043,1021.8701 1430.8105,1021.6045 Q1430.2168,1021.3232 1429.5918,1021.3232 Q1428.248,1021.3232 1427.5605,1022.4014 Q1426.873,1023.4639 1426.873,1025.5576 Q1426.873,1027.6514 1427.5605,1028.7295 Q1428.248,1029.792 1429.5918,1029.792 Q1430.2168,1029.792 1430.8105,1029.5264 Q1431.4043,1029.2451 1432.0293,1028.667 L1432.0293,1031.3857 Z " fill="#000000"/><text fill="#000000" font-family="Verdana" font-size="12" font-style="italic" lengthAdjust="spacing" textLength="169.9512" x="1439.0605" y="1021.6406">&#171;json: ToolDefinitionSchema&#187;</text><text fill="#000000" font-family="Verdana" font-size="14" lengthAdjust="spacing" textLength="54.0381" x="1497.0171" y="1038.0977">Remedy</text><line style="stroke:#000000;stroke-width:1.0;" x1="1417.0605" x2="1609.0117" y1="1046.4746" y2="1046.4746"/><text fill="#000000" font-family="Verdana" font-size="14" lengthAdjust="spacing" textLength="97.8838" x="1422.0605" y="1064.0371">host [1] : string</text><text fill="#000000" font-family="Verdana" font-size="14" lengthAdjust="spacing" textLength="118.5078" x="1422.0605" y="1080.9766">error [0..1] : string</text><text fill="#000000" font-family="Verdana" font-size="14" lengthAdjust="spacing" textLength="110.8994" x="1422.0605" y="1097.916">tool [0..1] : string</text><text fill="#000000" font-family="Verdana" font-size="14" lengthAdjust="spacing" textLength="119.2393" x="1422.0605" y="1114.8555">none [0..1] : string</text></g><!--class fhir_harness_fhir_ig_tools_Maintain--><g id="elem_fhir_harness_fhir_ig_tools_Maintain"><rect codeLine="76" fill="#EEE9F5" height="100.2773" id="fhir_harness_fhir_ig_tools_Maintain" rx="2.5" ry="2.5" style="stroke:#000000;stroke-width:1.0;" width="193.9512" x="1630.0117" y="1005.0156"/><ellipse cx="1643.0117" cy="1025.7451" fill="#FFFFFF" rx="9" ry="9" style="stroke:#000000;stroke-width:1.0;"/><path d="M1645.9805,1031.3857 Q1645.4023,1031.6826 1644.7617,1031.8232 Q1644.1211,1031.9795 1643.418,1031.9795 Q1640.918,1031.9795 1639.5898,1030.3389 Q1638.2773,1028.6826 1638.2773,1025.5576 Q1638.2773,1022.4326 1639.5898,1020.7764 Q1640.918,1019.1201 1643.418,1019.1201 Q1644.1211,1019.1201 1644.7617,1019.2764 Q1645.418,1019.4326 1645.9805,1019.7295 L1645.9805,1022.4482 Q1645.3555,1021.8701 1644.7617,1021.6045 Q1644.168,1021.3232 1643.543,1021.3232 Q1642.1992,1021.3232 1641.5117,1022.4014 Q1640.8242,1023.4639 1640.8242,1025.5576 Q1640.8242,1027.6514 1641.5117,1028.7295 Q1642.1992,1029.792 1643.543,1029.792 Q1644.168,1029.792 1644.7617,1029.5264 Q1645.3555,1029.2451 1645.9805,1028.667 L1645.9805,1031.3857 Z " fill="#000000"/><text fill="#000000" font-family="Verdana" font-size="12" font-style="italic" lengthAdjust="spacing" textLength="169.9512" x="1653.0117" y="1021.6406">&#171;json: ToolDefinitionSchema&#187;</text><text fill="#000000" font-family="Verdana" font-size="14" lengthAdjust="spacing" textLength="56.2734" x="1709.8506" y="1038.0977">Maintain</text><line style="stroke:#000000;stroke-width:1.0;" x1="1631.0117" x2="1822.9629" y1="1046.4746" y2="1046.4746"/><text fill="#000000" font-family="Verdana" font-size="14" lengthAdjust="spacing" textLength="114.7344" x="1636.0117" y="1064.0371">source [1] : string</text><text fill="#000000" font-family="Verdana" font-size="14" lengthAdjust="spacing" textLength="120.7363" x="1636.0117" y="1080.9766">artefact [1] : string</text><text fill="#000000" font-family="Verdana" font-size="14" lengthAdjust="spacing" textLength="129.6914" x="1636.0117" y="1097.916">format [0..1] : string</text></g><!--class fhir_harness_fhir_ig_tools_ToolDefinition--><g id="elem_fhir_harness_fhir_ig_tools_ToolDefinition"><rect codeLine="81" fill="#EEE9F5" height="286.6113" id="fhir_harness_fhir_ig_tools_ToolDefinition" rx="2.5" ry="2.5" style="stroke:#000000;stroke-width:1.0;" width="202.6406" x="1445.4893" y="640.9453"/><ellipse cx="1462.3995" cy="661.6748" fill="#FFFFFF" rx="9" ry="9" style="stroke:#000000;stroke-width:1.0;"/><path d="M1465.3683,667.3154 Q1464.7901,667.6123 1464.1495,667.7529 Q1463.5089,667.9092 1462.8058,667.9092 Q1460.3058,667.9092 1458.9776,666.2686 Q1457.6651,664.6123 1457.6651,661.4873 Q1457.6651,658.3623 1458.9776,656.7061 Q1460.3058,655.0498 1462.8058,655.0498 Q1463.5089,655.0498 1464.1495,655.2061 Q1464.8058,655.3623 1465.3683,655.6592 L1465.3683,658.3779 Q1464.7433,657.7998 1464.1495,657.5342 Q1463.5558,657.2529 1462.9308,657.2529 Q1461.587,657.2529 1460.8995,658.3311 Q1460.212,659.3936 1460.212,661.4873 Q1460.212,663.5811 1460.8995,664.6592 Q1461.587,665.7217 1462.9308,665.7217 Q1463.5558,665.7217 1464.1495,665.4561 Q1464.7433,665.1748 1465.3683,664.5967 L1465.3683,667.3154 Z " fill="#000000"/><text fill="#000000" font-family="Verdana" font-size="12" font-style="italic" lengthAdjust="spacing" textLength="169.9512" x="1473.2685" y="657.5703">&#171;json: ToolDefinitionSchema&#187;</text><text fill="#000000" font-family="Verdana" font-size="14" lengthAdjust="spacing" textLength="92.3535" x="1512.0673" y="674.0273">ToolDefinition</text><line style="stroke:#000000;stroke-width:1.0;" x1="1446.4893" x2="1647.1299" y1="682.4043" y2="682.4043"/><text fill="#000000" font-family="Verdana" font-size="14" lengthAdjust="spacing" textLength="81.2041" x="1451.4893" y="699.9668">id [1] : string</text><text fill="#000000" font-family="Verdana" font-size="14" lengthAdjust="spacing" textLength="93.3447" x="1451.4893" y="716.9063">title [1] : string</text><text fill="#000000" font-family="Verdana" font-size="14" lengthAdjust="spacing" textLength="143.2334" x="1451.4893" y="733.8457">description [1] : string</text><text fill="#000000" font-family="Verdana" font-size="14" lengthAdjust="spacing" textLength="111.125" x="1451.4893" y="750.7852">install [1] : object</text><text fill="#000000" font-family="Verdana" font-size="14" lengthAdjust="spacing" textLength="116.6211" x="1451.4893" y="767.7246">invoke [1] : object</text><text fill="#000000" font-family="Verdana" font-size="14" lengthAdjust="spacing" textLength="84.6357" x="1451.4893" y="784.6641">io [1] : object</text><text fill="#000000" font-family="Verdana" font-size="14" lengthAdjust="spacing" textLength="149.2695" x="1451.4893" y="801.6035">satisfies [1..*] : string[]</text><text fill="#000000" font-family="Verdana" font-size="14" lengthAdjust="spacing" textLength="149.4883" x="1451.4893" y="818.543">selection [0..1] : object</text><text fill="#000000" font-family="Verdana" font-size="14" lengthAdjust="spacing" textLength="144.2451" x="1451.4893" y="835.4824">requires [0..1] : object</text><text fill="#000000" font-family="Verdana" font-size="14" lengthAdjust="spacing" textLength="175.5947" x="1451.4893" y="852.4219">remedies [0..*] : Remedy[]</text><text fill="#000000" font-family="Verdana" font-size="14" lengthAdjust="spacing" textLength="179.7373" x="1451.4893" y="869.3613">maintains [0..*] : Maintain[]</text><text fill="#000000" font-family="Verdana" font-size="14" lengthAdjust="spacing" textLength="171.9717" x="1451.4893" y="886.3008">downstream [0..1] : object</text><text fill="#000000" font-family="Verdana" font-size="14" lengthAdjust="spacing" textLength="148.7705" x="1451.4893" y="903.2402">renders [0..*] : string[]</text><text fill="#000000" font-family="Verdana" font-size="14" lengthAdjust="spacing" textLength="190.6406" x="1451.4893" y="920.1797">subprocesses [0..*] : string[]</text></g><g id="elem_n_fhir_harness_fhir_ig_scripts_code"><path d="M1873.9629,640.9453 L1873.9629,682.4043 L2173.5806,682.4043 L2173.5806,650.9453 L2163.5806,640.9453 L1873.9629,640.9453 " fill="#FFFFFF" style="stroke:#000000;stroke-width:1.0;"/><path d="M2163.5806,640.9453 L2163.5806,650.9453 L2173.5806,650.9453 L2163.5806,640.9453 " fill="#FFFFFF" style="stroke:#000000;stroke-width:1.0;"/><text fill="#000000" font-family="Verdana" font-size="13" lengthAdjust="spacing" textLength="197.7104" x="1879.9629" y="658.5391">code: no node schema declared</text><text fill="#000000" font-family="Verdana" font-size="13" lengthAdjust="spacing" textLength="278.6177" x="1879.9629" y="674.2686">(no validator registered: could not determine)</text></g><!--class fhir_harness_fhir_harness_processes_omg_bpmn_2_0--><g id="elem_fhir_harness_fhir_harness_processes_omg_bpmn_2_0"><rect codeLine="102" fill="#EEE9F5" height="405.1875" id="fhir_harness_fhir_harness_processes_omg_bpmn_2_0" rx="2.5" ry="2.5" style="stroke:#000000;stroke-width:1.0;" width="334.0654" x="32" y="640.9453"/><ellipse cx="45" cy="661.6748" fill="#FFFFFF" rx="9" ry="9" style="stroke:#000000;stroke-width:1.0;"/><path d="M47.9688,667.3154 Q47.3906,667.6123 46.75,667.7529 Q46.1094,667.9092 45.4063,667.9092 Q42.9063,667.9092 41.5781,666.2686 Q40.2656,664.6123 40.2656,661.4873 Q40.2656,658.3623 41.5781,656.7061 Q42.9063,655.0498 45.4063,655.0498 Q46.1094,655.0498 46.75,655.2061 Q47.4063,655.3623 47.9688,655.6592 L47.9688,658.3779 Q47.3438,657.7998 46.75,657.5342 Q46.1563,657.2529 45.5313,657.2529 Q44.1875,657.2529 43.5,658.3311 Q42.8125,659.3936 42.8125,661.4873 Q42.8125,663.5811 43.5,664.6592 Q44.1875,665.7217 45.5313,665.7217 Q46.1563,665.7217 46.75,665.4561 Q47.3438,665.1748 47.9688,664.5967 L47.9688,667.3154 Z " fill="#000000"/><text fill="#000000" font-family="Verdana" font-size="12" font-style="italic" lengthAdjust="spacing" textLength="124.998" x="147.5337" y="657.5703">&#171;ext: omg-bpmn-2.0&#187;</text><text fill="#000000" font-family="Verdana" font-size="14" lengthAdjust="spacing" textLength="306.0654" x="57" y="674.0273">Business Process Model and Notation (BPMN)</text><line style="stroke:#000000;stroke-width:1.0;" x1="33" x2="365.0654" y1="682.4043" y2="682.4043"/><text fill="#000000" font-family="Verdana" font-size="14" lengthAdjust="spacing" textLength="216.6514" x="38" y="699.9668">bpmn:callActivity [0..*] : element</text><text fill="#000000" font-family="Verdana" font-size="14" lengthAdjust="spacing" textLength="230.4463" x="38" y="716.9063">bpmn:collaboration [0..*] : element</text><text fill="#000000" font-family="Verdana" font-size="14" lengthAdjust="spacing" textLength="213.6709" x="38" y="733.8457">bpmn:definitions [0..*] : element</text><text fill="#000000" font-family="Verdana" font-size="14" lengthAdjust="spacing" textLength="243.6943" x="38" y="750.7852">bpmn:documentation [0..*] : element</text><text fill="#000000" font-family="Verdana" font-size="14" lengthAdjust="spacing" textLength="206.9785" x="38" y="767.7246">bpmn:endEvent [0..*] : element</text><text fill="#000000" font-family="Verdana" font-size="14" lengthAdjust="spacing" textLength="265.1934" x="38" y="784.6641">bpmn:exclusiveGateway [0..*] : element</text><text fill="#000000" font-family="Verdana" font-size="14" lengthAdjust="spacing" textLength="269.5752" x="38" y="801.6035">bpmn:extensionElements [0..*] : element</text><text fill="#000000" font-family="Verdana" font-size="14" lengthAdjust="spacing" textLength="231.1299" x="38" y="818.543">bpmn:flowNodeRef [0..*] : element</text><text fill="#000000" font-family="Verdana" font-size="14" lengthAdjust="spacing" textLength="205.2422" x="38" y="835.4824">bpmn:incoming [0..*] : element</text><text fill="#000000" font-family="Verdana" font-size="14" lengthAdjust="spacing" textLength="172.3613" x="38" y="852.4219">bpmn:lane [0..*] : element</text><text fill="#000000" font-family="Verdana" font-size="14" lengthAdjust="spacing" textLength="194.0859" x="38" y="869.3613">bpmn:laneSet [0..*] : element</text><text fill="#000000" font-family="Verdana" font-size="14" lengthAdjust="spacing" textLength="203.1572" x="38" y="886.3008">bpmn:outgoing [0..*] : element</text><text fill="#000000" font-family="Verdana" font-size="14" lengthAdjust="spacing" textLength="250.8105" x="38" y="903.2402">bpmn:parallelGateway [0..*] : element</text><text fill="#000000" font-family="Verdana" font-size="14" lengthAdjust="spacing" textLength="215.0244" x="38" y="920.1797">bpmn:participant [0..*] : element</text><text fill="#000000" font-family="Verdana" font-size="14" lengthAdjust="spacing" textLength="197.8525" x="38" y="937.1191">bpmn:process [0..*] : element</text><text fill="#000000" font-family="Verdana" font-size="14" lengthAdjust="spacing" textLength="241.1787" x="38" y="954.0586">bpmn:sequenceFlow [0..*] : element</text><text fill="#000000" font-family="Verdana" font-size="14" lengthAdjust="spacing" textLength="224.8887" x="38" y="970.998">bpmn:serviceTask [0..*] : element</text><text fill="#000000" font-family="Verdana" font-size="14" lengthAdjust="spacing" textLength="211.6543" x="38" y="987.9375">bpmn:startEvent [0..*] : element</text><text fill="#000000" font-family="Verdana" font-size="14" lengthAdjust="spacing" textLength="172.1904" x="38" y="1004.877">bpmn:task [0..*] : element</text><text fill="#000000" font-family="Verdana" font-size="14" lengthAdjust="spacing" textLength="278.7764" x="38" y="1021.8164">bpmn:timerEventDefinition [0..*] : element</text><text fill="#000000" font-family="Verdana" font-size="14" lengthAdjust="spacing" textLength="205.748" x="38" y="1038.7559">bpmn:userTask [0..*] : element</text></g><!--class fhir_harness_qa_kg_qa_v1_kg_qa_v1--><g id="elem_fhir_harness_qa_kg_qa_v1_kg_qa_v1"><rect codeLine="127" fill="#F4E6E6" height="168.0352" id="fhir_harness_qa_kg_qa_v1_kg_qa_v1" rx="2.5" ry="2.5" style="stroke:#000000;stroke-width:1.0;" width="200.7881" x="910.8994" y="640.9453"/><ellipse cx="931.2792" cy="661.6748" fill="#FFFFFF" rx="9" ry="9" style="stroke:#000000;stroke-width:1.0;"/><path d="M934.2479,667.3154 Q933.6698,667.6123 933.0292,667.7529 Q932.3885,667.9092 931.6854,667.9092 Q929.1854,667.9092 927.8573,666.2686 Q926.5448,664.6123 926.5448,661.4873 Q926.5448,658.3623 927.8573,656.7061 Q929.1854,655.0498 931.6854,655.0498 Q932.3885,655.0498 933.0292,655.2061 Q933.6854,655.3623 934.2479,655.6592 L934.2479,658.3779 Q933.6229,657.7998 933.0292,657.5342 Q932.4354,657.2529 931.8104,657.2529 Q930.4667,657.2529 929.7792,658.3311 Q929.0917,659.3936 929.0917,661.4873 Q929.0917,663.5811 929.7792,664.6592 Q930.4667,665.7217 931.8104,665.7217 Q932.4354,665.7217 933.0292,665.4561 Q933.6229,665.1748 934.2479,664.5967 L934.2479,667.3154 Z " fill="#000000"/><text fill="#000000" font-family="Verdana" font-size="12" font-style="italic" lengthAdjust="spacing" textLength="160.3887" x="942.9191" y="657.5703">&#171;json: KgQaReportSchema&#187;</text><text fill="#000000" font-family="Verdana" font-size="14" lengthAdjust="spacing" textLength="57.75" x="994.2384" y="674.0273">kg-qa/v1</text><line style="stroke:#000000;stroke-width:1.0;" x1="911.8994" x2="1110.6875" y1="682.4043" y2="682.4043"/><text fill="#000000" font-family="Verdana" font-size="14" lengthAdjust="spacing" textLength="158.833" x="916.8994" y="699.9668">$schema [1] : 'kg-qa/v1'</text><text fill="#000000" font-family="Verdana" font-size="14" lengthAdjust="spacing" textLength="121.2217" x="916.8994" y="716.9063">subject [1] : object</text><text fill="#000000" font-family="Verdana" font-size="14" lengthAdjust="spacing" textLength="188.7881" x="916.8994" y="733.8457">source_hash [1] : string | null</text><text fill="#000000" font-family="Verdana" font-size="14" lengthAdjust="spacing" textLength="165.9971" x="916.8994" y="750.7852">criteria [1] : map&lt;object&gt;</text><text fill="#000000" font-family="Verdana" font-size="14" lengthAdjust="spacing" textLength="165.9902" x="916.8994" y="767.7246">totals [1] : map&lt;number&gt;</text><text fill="#000000" font-family="Verdana" font-size="14" lengthAdjust="spacing" textLength="181.1729" x="916.8994" y="784.6641">pair_attestations [0..1] : any</text><text fill="#000000" font-family="Verdana" font-size="14" lengthAdjust="spacing" textLength="166.5508" x="916.8994" y="801.6035">voice_reviews [0..1] : any</text></g><!--class fhir_harness_qa_kg_qa_manifest_v1_kg_qa_manifest_v1--><g id="elem_fhir_harness_qa_kg_qa_manifest_v1_kg_qa_manifest_v1"><rect codeLine="136" fill="#F4E6E6" height="83.3379" id="fhir_harness_qa_kg_qa_manifest_v1_kg_qa_manifest_v1" rx="2.5" ry="2.5" style="stroke:#000000;stroke-width:1.0;" width="234.373" x="1131.6875" y="683.2939"/><ellipse cx="1161.6829" cy="704.0234" fill="#FFFFFF" rx="9" ry="9" style="stroke:#000000;stroke-width:1.0;"/><path d="M1164.6517,709.6641 Q1164.0735,709.9609 1163.4329,710.1016 Q1162.7923,710.2578 1162.0892,710.2578 Q1159.5892,710.2578 1158.261,708.6172 Q1156.9485,706.9609 1156.9485,703.8359 Q1156.9485,700.7109 1158.261,699.0547 Q1159.5892,697.3984 1162.0892,697.3984 Q1162.7923,697.3984 1163.4329,697.5547 Q1164.0892,697.7109 1164.6517,698.0078 L1164.6517,700.7266 Q1164.0267,700.1484 1163.4329,699.8828 Q1162.8392,699.6016 1162.2142,699.6016 Q1160.8704,699.6016 1160.1829,700.6797 Q1159.4954,701.7422 1159.4954,703.8359 Q1159.4954,705.9297 1160.1829,707.0078 Q1160.8704,708.0703 1162.2142,708.0703 Q1162.8392,708.0703 1163.4329,707.8047 Q1164.0267,707.5234 1164.6517,706.9453 L1164.6517,709.6641 Z " fill="#000000"/><text fill="#000000" font-family="Verdana" font-size="12" font-style="italic" lengthAdjust="spacing" textLength="172.6055" x="1175.4597" y="699.9189">&#171;json: KgQaManifestSchema&#187;</text><text fill="#000000" font-family="Verdana" font-size="14" lengthAdjust="spacing" textLength="121.29" x="1201.1174" y="716.376">kg-qa-manifest/v1</text><line style="stroke:#000000;stroke-width:1.0;" x1="1132.6875" x2="1365.0605" y1="724.7529" y2="724.7529"/><text fill="#000000" font-family="Verdana" font-size="14" lengthAdjust="spacing" textLength="222.373" x="1137.6875" y="742.3154">$schema [1] : 'kg-qa-manifest/v1'</text><text fill="#000000" font-family="Verdana" font-size="14" lengthAdjust="spacing" textLength="119.1982" x="1137.6875" y="759.2549">auditor [1] : object</text></g><line style="stroke:#000000;stroke-width:1.0;" x1="1513.0361" x2="1513.0361" y1="927.5566" y2="1005.0156"/><polygon fill="#000000" points="1513.0361,927.5566,1509.0361,933.5566,1513.0361,939.5566,1517.0361,933.5566,1513.0361,927.5566" style="stroke:#000000;stroke-width:1.0;"/><text fill="#000000" font-family="Verdana" font-size="13" lengthAdjust="spacing" textLength="56.9893" x="1452.0469" y="962.1504">remedies</text><text fill="#000000" font-family="Verdana" font-size="13" lengthAdjust="spacing" textLength="22.2041" x="1516.0361" y="999.8799">0..*</text><line style="stroke:#000000;stroke-width:1.0;" x1="1580.583" x2="1580.583" y1="927.5566" y2="937.5566"/><line style="stroke:#000000;stroke-width:1.0;" x1="1580.583" x2="1726.9873" y1="937.5566" y2="937.5566"/><line style="stroke:#000000;stroke-width:1.0;" x1="1726.9873" x2="1726.9873" y1="937.5566" y2="1005.0156"/><polygon fill="#000000" points="1580.583,927.5566,1576.583,933.5566,1580.583,939.5566,1584.583,933.5566,1580.583,927.5566" style="stroke:#000000;stroke-width:1.0;"/><text fill="#000000" font-family="Verdana" font-size="13" lengthAdjust="spacing" textLength="58.7603" x="1731.9873" y="962.1504">maintains</text><text fill="#000000" font-family="Verdana" font-size="13" lengthAdjust="spacing" textLength="22.2041" x="1729.9873" y="999.8799">0..*</text><!--SRC=[hLZRRjms47tVhs3S0hQ3Rc87IO0QXe7S6WIDWzGEsWVN4BZIICiiHSeajSws3T2Fw1VsIpgaxXPrSL04pagSmo4vbpD3FSWKJL9AEDt9t13WcyK3iuOKICOf4mkzOIAZYgOav5Jh5yOejieDl0kbk6H_03bgGVIQHlAMYOJ4b6jeIJ8QRcW2bsR7WIW83HK9XyMQHK0WpSoEf63MCjABHGabU_6QgUMQAW5QFsw_B8sYGdDgc1HwZr1DiaqIM4HG8helRJWvFMszBhNCLGZwx8pykI354SdUfmRmIegO9MwDUVg3tcHSyREMueJq99SX6fhYsj_5J_7ViTi38H74DEVclGmf6klgwD6ZusjoGZHQNYGEeVCiayf0L62q0priG5VN3jRQrskcl9eoQTuYAkTKCNH23Lbn6Mx8NoHSqyo0mgTOSYRT71d7B6IKNy1DpXH4hLbISg02KLyNN-SuSaivYwYHQeuR6p2Qj7df-ivjiz7xU7iyuRn6KU3cDWF1zjWpLBlprshmWunWm9NVQpTEhfnvzlkRstSm5fM8bcTAb7Mk4ydLPqoRmlrjfMrdehMrrytA1O4_d6QwokmooMN2O5R6rM2RR_MBprM9ejcwqhwRzbUZhNIEKr0DxngdzSPhpxsraa-buBxUw-stS24odSU9Xfc154Q-XLPAxeTIGQ4f0_LEQ2J8i3NJg1mAJuA8GD6LLNidvwmGrKJwDwaslgGaP2rvL0KK4hW1OMoIswSlzWcNDO2_k0JRGbIIJPfIjUiVhhAEvtHrY8zBFqZp8iiu2ulpUA2Yzauhi5EQdHRfS5OI9aPK4U8_iG55UCOGb7YhP9vfZrrlcLapuPrAjzJGrabQcMXmELi9_ToQhpZJwpP15cNH6M_3E7y9rA8zszaahqhtz6KHw52np1xNd-nrYA1z_TQWOlU-6u1DW7qJLN2sKXWaVceeXPX_vPEF1o8PvYaUUCbIIsDU8YYdbmbUpGYA6KtczmLrwhzp8vVOTeHKtIVj-zihiXN70nzz5x0ETrzTOsPXgUKEaAEJiBAcJ40KAA3Qwyq9ScR9qWNI62Up92WmQ8JYeJI_iD6nLmoTu9jBjYghYvo2w7TnK4dMe82WsPIbTLgRAQOfupjIhY5eYjA3f-uXEhGqa_F8haNgynwwtOgnlPO_awStI6uJXtSGMuRiRpVoBh3FZNO31QUQ6XIefet3mTSGCy5ieZGn100_ni_A65fBRVf10KeDKA9TQO00XJyJwqESOvjky6_g61NkVWSf6kJ-KIYsdp4DFOUCfKgf6TzpT-cfdNVHzzi_6wxATuSxlDhBPrkIEUytOqnivGOyuzBJk26twfWvNl0rx1euGZkytfgjYdvR3mWnI5dxAb24RQavBPtVabVnK2BmueP7H29A1_JReZ9qqz3vAbCIBr9wu38oWyUSxQU8h01X28J8I1qUimCJBDPq9GeIff6D8Fe6WYhs4DW5vxNEjMbcTCwD6KzFw-SkQxtCDRDOyh6GatFS2SUQ7X4i-AvyauEN7yy_74wqqhN-GAP9iCfI4Jm9Zd1XR0RH-Mcoj6FB9u-EUcbb1ITuz-GlC5wtrTNHUHrZs1RA5anoJbUoQ2n6S56ToteCLHRYAMqOhs-sLGCr0FaIShJb5jvYrtjBTwDGRCOqhlYca8pjCERorjugBY0UGJ4HohHg_lmGJalk7nPVmjW1PMuIERw6_Jp3EV1f4o3IuBq_ewCsBMDg1A6HnW2RyP_GJACmjMKXVA9wCuR2pjnC-TcCwp0i1ULqj8hCC3p7dGtjQfZcRgW_-MyevjiDxMRu9bdUK6y7V4C3r83_OxDRFTG5yUVa5te1zijGkxE5v_3StzbMo-nN76xPtbErN0k0Mz3hJbriTxF8YSYTh59zzuPca9UuRWb5dgv0dPMVBV20r1ZGXZRPxw1uJobkZ1930RlaBOFRdlZh7SCjKofOZDh6BLYX6bEsHZesFI_7xs7LzXuAyz8yOkv2t3MlZPZ5_DxduN99zcpSxSteM4_ghk1_Nw5k9a-QrcAnJnB5iA8YCKKwf1dyG9vXUULvAWxq8Vdtxt_kyw5sziV0sP-Y1Y-cKnUdYRl5PBioj-Hxs65n3uijhzOiYa1SsrvkER7hnMpxpbLRddOnsn-p5FUij1XquvI-6_eV]--></g></svg>