<svg xmlns="http://www.w3.org/2000/svg" xmlns:xlink="http://www.w3.org/1999/xlink" contentStyleType="text/css" height="518px" preserveAspectRatio="none" style="width:264px;height:518px;background:#FFFFFF;" version="1.1" viewBox="0 0 264 518" width="264px" zoomAndPan="magnify"><!-- GENERATED from cat-harness/uml/overview/smart-base/tools.puml by cat-harness/scripts/gen-uml-overview.ts (PlantUML 1.2024.7) --><!-- puml-sha256: cc0e8adce2edc4c2f06cb720220642f6c45d9dbd681073402ccb8145e4fa70e7 --><defs/><g><rect fill="#FFFFFF" height="495.5469" rx="2.5" ry="2.5" style="stroke:#000000;stroke-width:1.0;" width="241.9785" x="17" y="17"/><text fill="#000000" font-family="Verdana" font-size="14" font-style="italic" lengthAdjust="spacing" textLength="50.9346" x="112.522" y="31.9951">&#171;tools&#187;</text><text fill="#000000" font-family="Verdana" font-size="14" font-weight="bold" lengthAdjust="spacing" textLength="133.2461" x="71.3662" y="48.292">smart-base/tools</text><!--class smart_base_tools_Maintain--><g id="elem_smart_base_tools_Maintain"><rect codeLine="11" fill="#EEE9F5" height="97.1563" id="smart_base_tools_Maintain" rx="2.5" ry="2.5" style="stroke:#000000;stroke-width:1.0;" width="202.7754" x="36.6016" y="400.3906"/><ellipse cx="49.6016" cy="420.5234" fill="#FFFFFF" rx="9" ry="9" style="stroke:#000000;stroke-width:1.0;"/><path d="M52.5703,426.1641 Q51.9922,426.4609 51.3516,426.6016 Q50.7109,426.7578 50.0078,426.7578 Q47.5078,426.7578 46.1797,425.1172 Q44.8672,423.4609 44.8672,420.3359 Q44.8672,417.2109 46.1797,415.5547 Q47.5078,413.8984 50.0078,413.8984 Q50.7109,413.8984 51.3516,414.0547 Q52.0078,414.2109 52.5703,414.5078 L52.5703,417.2266 Q51.9453,416.6484 51.3516,416.3828 Q50.7578,416.1016 50.1328,416.1016 Q48.7891,416.1016 48.1016,417.1797 Q47.4141,418.2422 47.4141,420.3359 Q47.4141,422.4297 48.1016,423.5078 Q48.7891,424.5703 50.1328,424.5703 Q50.7578,424.5703 51.3516,424.3047 Q51.9453,424.0234 52.5703,423.4453 L52.5703,426.1641 Z " fill="#000000"/><text fill="#000000" font-family="Verdana" font-size="12" font-style="italic" lengthAdjust="spacing" textLength="178.7754" x="59.6016" y="416.5293">&#171;json: ToolDefinitionSchema&#187;</text><text fill="#000000" font-family="Verdana" font-size="14" lengthAdjust="spacing" textLength="60.252" x="118.8633" y="432.3545">Maintain</text><line style="stroke:#000000;stroke-width:1.0;" x1="37.6016" x2="238.377" y1="440.6563" y2="440.6563"/><text fill="#000000" font-family="Verdana" font-size="14" lengthAdjust="spacing" textLength="124.8857" x="42.6016" y="457.6514">source [1] : string</text><text fill="#000000" font-family="Verdana" font-size="14" lengthAdjust="spacing" textLength="133.2188" x="42.6016" y="473.9482">artefact [1] : string</text><text fill="#000000" font-family="Verdana" font-size="14" lengthAdjust="spacing" textLength="142.8506" x="42.6016" y="490.2451">format [0..1] : string</text></g><!--class smart_base_tools_ToolDefinition--><g id="elem_smart_base_tools_ToolDefinition"><rect codeLine="16" fill="#EEE9F5" height="260.125" id="smart_base_tools_ToolDefinition" rx="2.5" ry="2.5" style="stroke:#000000;stroke-width:1.0;" width="211.9785" x="32" y="64"/><ellipse cx="49.1414" cy="84.1328" fill="#FFFFFF" rx="9" ry="9" style="stroke:#000000;stroke-width:1.0;"/><path d="M52.1102,89.7734 Q51.532,90.0703 50.8914,90.2109 Q50.2508,90.3672 49.5477,90.3672 Q47.0477,90.3672 45.7195,88.7266 Q44.407,87.0703 44.407,83.9453 Q44.407,80.8203 45.7195,79.1641 Q47.0477,77.5078 49.5477,77.5078 Q50.2508,77.5078 50.8914,77.6641 Q51.5477,77.8203 52.1102,78.1172 L52.1102,80.8359 Q51.4852,80.2578 50.8914,79.9922 Q50.2977,79.7109 49.6727,79.7109 Q48.3289,79.7109 47.6414,80.7891 Q46.9539,81.8516 46.9539,83.9453 Q46.9539,86.0391 47.6414,87.1172 Q48.3289,88.1797 49.6727,88.1797 Q50.2977,88.1797 50.8914,87.9141 Q51.4852,87.6328 52.1102,87.0547 L52.1102,89.7734 Z " fill="#000000"/><text fill="#000000" font-family="Verdana" font-size="12" font-style="italic" lengthAdjust="spacing" textLength="178.7754" x="60.0617" y="80.1387">&#171;json: ToolDefinitionSchema&#187;</text><text fill="#000000" font-family="Verdana" font-size="14" lengthAdjust="spacing" textLength="97.3643" x="100.7673" y="95.9639">ToolDefinition</text><line style="stroke:#000000;stroke-width:1.0;" x1="33" x2="242.9785" y1="104.2656" y2="104.2656"/><text fill="#000000" font-family="Verdana" font-size="14" lengthAdjust="spacing" textLength="90.8633" x="38" y="121.2607">id [1] : string</text><text fill="#000000" font-family="Verdana" font-size="14" lengthAdjust="spacing" textLength="105.458" x="38" y="137.5576">title [1] : string</text><text fill="#000000" font-family="Verdana" font-size="14" lengthAdjust="spacing" textLength="155.9277" x="38" y="153.8545">description [1] : string</text><text fill="#000000" font-family="Verdana" font-size="14" lengthAdjust="spacing" textLength="122.9443" x="38" y="170.1514">install [1] : object</text><text fill="#000000" font-family="Verdana" font-size="14" lengthAdjust="spacing" textLength="127.374" x="38" y="186.4482">invoke [1] : object</text><text fill="#000000" font-family="Verdana" font-size="14" lengthAdjust="spacing" textLength="93.4951" x="38" y="202.7451">io [1] : object</text><text fill="#000000" font-family="Verdana" font-size="14" lengthAdjust="spacing" textLength="162.1826" x="38" y="219.042">satisfies [1..*] : string[]</text><text fill="#000000" font-family="Verdana" font-size="14" lengthAdjust="spacing" textLength="161.7725" x="38" y="235.3389">selection [0..1] : object</text><text fill="#000000" font-family="Verdana" font-size="14" lengthAdjust="spacing" textLength="156.5293" x="38" y="251.6357">requires [0..1] : object</text><text fill="#000000" font-family="Verdana" font-size="14" lengthAdjust="spacing" textLength="194.0791" x="38" y="267.9326">maintains [0..*] : Maintain[]</text><text fill="#000000" font-family="Verdana" font-size="14" lengthAdjust="spacing" textLength="185.9922" x="38" y="284.2295">downstream [0..1] : object</text><text fill="#000000" font-family="Verdana" font-size="14" lengthAdjust="spacing" textLength="158.7031" x="38" y="300.5264">renders [0..*] : string[]</text><text fill="#000000" font-family="Verdana" font-size="14" lengthAdjust="spacing" textLength="199.9785" x="38" y="316.8232">subprocesses [0..*] : string[]</text></g><line style="stroke:#000000;stroke-width:1.0;" x1="137.9893" x2="137.9893" y1="324.125" y2="400.3906"/><polygon fill="#000000" points="137.9893,324.125,133.9893,330.125,137.9893,336.125,141.9893,330.125,137.9893,324.125" style="stroke:#000000;stroke-width:1.0;"/><text fill="#000000" font-family="Verdana" font-size="13" lengthAdjust="spacing" textLength="64.1685" x="69.8208" y="358.1919">maintains</text><text fill="#000000" font-family="Verdana" font-size="13" lengthAdjust="spacing" textLength="23.0356" x="140.9893" y="395.3247">0..*</text><!--SRC=[bPB1JiCm38RlUGfJRfCsuC212Kr2uiA14zocQV9IjykQ9YLsGGFjtScoJjjO1U9GLVBdt_vjvw89MDO85jU-5I1RgGjPKatGM3HESMLSWm5hq1QP7qI2MRH2Jzgx5_D9S7sKmalC_OTn9HHecOv8Wxh2abvaRGa2QK5NMb9BanDGtSWQQfAbprcfBXKohZ78S85CL-AzvGoGeQdAUGBpBPWd0FVtwJ-Pm9U2dL78dgDzYL-I_PJCzpHgL-pT65vZ-94AuuoOE9gEEy1Oy9A8xehRL1Y0VHiqmVHc1cFWk0fNfdWiJWLgEIU53pN6-FLeT8es1wUdhVlzdkRypxN9pts94TipI4wiWsbIZpDe70jQsm6_MCKxTk3TLzGJz-SnHZ5S6EA8HgF1eSLqjkDaOshglz_PaJhGMsl2Ljm3w-wcEvfAxy_S5O-lCyuGABx8_kekft0aFtNMBfhWDJ5JVyf6RPJwwtA3uH2ohJZxvL6E3xDy0m00]--></g></svg>