<svg xmlns="http://www.w3.org/2000/svg" xmlns:xlink="http://www.w3.org/1999/xlink" contentStyleType="text/css" height="545px" preserveAspectRatio="none" style="width:1190px;height:545px;background:#FFFFFF;" version="1.1" viewBox="0 0 1190 545" width="1190px" zoomAndPan="magnify"><!-- GENERATED from cat-harness/uml/overview/who-iris/library.puml by cat-harness/scripts/gen-uml-overview.ts (PlantUML 1.2024.7) --><!-- puml-sha256: 396ec7f47e25a36e02219174eeb369dfa2dc97579219349e2fdf0cffc00e1d57 --><defs/><g><rect fill="#FFFFFF" height="522.2969" rx="2.5" ry="2.5" style="stroke:#000000;stroke-width:1.0;" width="1167.7759" x="17" y="17"/><text fill="#000000" font-family="Verdana" font-size="14" font-style="italic" lengthAdjust="spacing" textLength="62.1729" x="569.8015" y="31.9951">&#171;library&#187;</text><text fill="#000000" font-family="Verdana" font-size="14" font-weight="bold" lengthAdjust="spacing" textLength="120.2783" x="540.7488" y="48.292">who-iris/library</text><!--class who_iris_library_folio_document_images_v1_folio_document_images_v1--><g id="elem_who_iris_library_folio_document_images_v1_folio_document_images_v1"><rect codeLine="11" fill="#F4F4F1" height="113.4531" id="who_iris_library_folio_document_images_v1_folio_document_images_v1" rx="2.5" ry="2.5" style="stroke:#000000;stroke-width:1.0;" width="304.585" x="231.9858" y="64"/><ellipse cx="288.8345" cy="84.1328" fill="#FFFFFF" rx="9" ry="9" style="stroke:#000000;stroke-width:1.0;"/><path d="M291.8032,89.7734 Q291.2251,90.0703 290.5845,90.2109 Q289.9438,90.3672 289.2407,90.3672 Q286.7407,90.3672 285.4126,88.7266 Q284.1001,87.0703 284.1001,83.9453 Q284.1001,80.8203 285.4126,79.1641 Q286.7407,77.5078 289.2407,77.5078 Q289.9438,77.5078 290.5845,77.6641 Q291.2407,77.8203 291.8032,78.1172 L291.8032,80.8359 Q291.1782,80.2578 290.5845,79.9922 Q289.9907,79.7109 289.3657,79.7109 Q288.022,79.7109 287.3345,80.7891 Q286.647,81.8516 286.647,83.9453 Q286.647,86.0391 287.3345,87.1172 Q288.022,88.1797 289.3657,88.1797 Q289.9907,88.1797 290.5845,87.9141 Q291.1782,87.6328 291.8032,87.0547 L291.8032,89.7734 Z " fill="#000000"/><text fill="#000000" font-family="Verdana" font-size="12" font-style="italic" lengthAdjust="spacing" textLength="183.9902" x="306.0332" y="80.1387">&#171;json: ImagesSidecarSchema&#187;</text><text fill="#000000" font-family="Verdana" font-size="14" lengthAdjust="spacing" textLength="183.3877" x="306.3345" y="95.9639">folio-document-images/v1</text><line style="stroke:#000000;stroke-width:1.0;" x1="232.9858" x2="535.5708" y1="104.2656" y2="104.2656"/><text fill="#000000" font-family="Verdana" font-size="14" lengthAdjust="spacing" textLength="292.585" x="237.9858" y="121.2607">$schema [1] : 'folio-document-images/v1'</text><text fill="#000000" font-family="Verdana" font-size="14" lengthAdjust="spacing" textLength="123.0127" x="237.9858" y="137.5576">doc_id [1] : string</text><text fill="#000000" font-family="Verdana" font-size="14" lengthAdjust="spacing" textLength="182.0068" x="237.9858" y="153.8545">images [1] : object[] | null</text><text fill="#000000" font-family="Verdana" font-size="14" lengthAdjust="spacing" textLength="249.5801" x="237.9858" y="170.1514">undetermined_reason [0..1] : string</text></g><!--class who_iris_library_folio_image_verdicts_v1--><g id="elem_who_iris_library_folio_image_verdicts_v1"><rect codeLine="17" fill="#F4F4F1" height="113.4531" id="who_iris_library_folio_image_verdicts_v1" rx="2.5" ry="2.5" style="stroke:#000000;stroke-width:1.0;" width="603.0283" x="32" y="253.7188"/><ellipse cx="249.0796" cy="273.8516" fill="#FFFFFF" rx="9" ry="9" style="stroke:#000000;stroke-width:1.0;"/><path d="M252.0483,279.4922 Q251.4702,279.7891 250.8296,279.9297 Q250.189,280.0859 249.4858,280.0859 Q246.9858,280.0859 245.6577,278.4453 Q244.3452,276.7891 244.3452,273.6641 Q244.3452,270.5391 245.6577,268.8828 Q246.9858,267.2266 249.4858,267.2266 Q250.189,267.2266 250.8296,267.3828 Q251.4858,267.5391 252.0483,267.8359 L252.0483,270.5547 Q251.4233,269.9766 250.8296,269.7109 Q250.2358,269.4297 249.6108,269.4297 Q248.2671,269.4297 247.5796,270.5078 Q246.8921,271.5703 246.8921,273.6641 Q246.8921,275.7578 247.5796,276.8359 Q248.2671,277.8984 249.6108,277.8984 Q250.2358,277.8984 250.8296,277.6328 Q251.4233,277.3516 252.0483,276.7734 L252.0483,279.4922 Z " fill="#000000"/><text fill="#000000" font-family="Verdana" font-size="12" font-style="italic" lengthAdjust="spacing" textLength="97.2305" x="298.6489" y="269.8574">&#171;ts: VerdictFile&#187;</text><text fill="#000000" font-family="Verdana" font-size="14" lengthAdjust="spacing" textLength="161.3691" x="266.5796" y="285.6826">folio-image-verdicts/v1</text><line style="stroke:#000000;stroke-width:1.0;" x1="33" x2="634.0283" y1="293.9844" y2="293.9844"/><text fill="#000000" font-family="Verdana" font-size="14" lengthAdjust="spacing" textLength="193.9287" x="38" y="310.9795">inspected_by [1] : unknown</text><text fill="#000000" font-family="Verdana" font-size="14" lengthAdjust="spacing" textLength="167.3984" x="38" y="327.2764">inspected_at [1] : string</text><text fill="#000000" font-family="Verdana" font-size="14" lengthAdjust="spacing" textLength="591.0283" x="38" y="343.5732">attribution [0..1] : Record&lt;string, { inspected_by: unknown; inspected_at: string }&gt;</text><text fill="#000000" font-family="Verdana" font-size="14" lengthAdjust="spacing" textLength="387.3105" x="38" y="359.8701">verdicts [1] : Record&lt;string, Record&lt;string, Verdict&gt;&gt;</text></g><!--class who_iris_library_folio_section_verdicts_v1_folio_section_verdicts_v1--><g id="elem_who_iris_library_folio_section_verdicts_v1_folio_section_verdicts_v1"><rect codeLine="23" fill="#F4F4F1" height="129.75" id="who_iris_library_folio_section_verdicts_v1_folio_section_verdicts_v1" rx="2.5" ry="2.5" style="stroke:#000000;stroke-width:1.0;" width="289.3818" x="655.0283" y="237.4219"/><ellipse cx="696.1509" cy="257.5547" fill="#FFFFFF" rx="9" ry="9" style="stroke:#000000;stroke-width:1.0;"/><path d="M699.1196,263.1953 Q698.5415,263.4922 697.9009,263.6328 Q697.2603,263.7891 696.5571,263.7891 Q694.0571,263.7891 692.729,262.1484 Q691.4165,260.4922 691.4165,257.3672 Q691.4165,254.2422 692.729,252.5859 Q694.0571,250.9297 696.5571,250.9297 Q697.2603,250.9297 697.9009,251.0859 Q698.5571,251.2422 699.1196,251.5391 L699.1196,254.2578 Q698.4946,253.6797 697.9009,253.4141 Q697.3071,253.1328 696.6821,253.1328 Q695.3384,253.1328 694.6509,254.2109 Q693.9634,255.2734 693.9634,257.3672 Q693.9634,259.4609 694.6509,260.5391 Q695.3384,261.6016 696.6821,261.6016 Q697.3071,261.6016 697.9009,261.3359 Q698.4946,261.0547 699.1196,260.4766 L699.1196,263.1953 Z " fill="#000000"/><text fill="#000000" font-family="Verdana" font-size="12" font-style="italic" lengthAdjust="spacing" textLength="203.6367" x="711.6509" y="253.5605">&#171;json: SectionVerdictFileSchema&#187;</text><text fill="#000000" font-family="Verdana" font-size="14" lengthAdjust="spacing" textLength="168.1846" x="729.377" y="269.3857">folio-section-verdicts/v1</text><line style="stroke:#000000;stroke-width:1.0;" x1="656.0283" x2="943.4102" y1="277.6875" y2="277.6875"/><text fill="#000000" font-family="Verdana" font-size="14" lengthAdjust="spacing" textLength="277.3818" x="661.0283" y="294.6826">$schema [1] : 'folio-section-verdicts/v1'</text><text fill="#000000" font-family="Verdana" font-size="14" lengthAdjust="spacing" textLength="169.4082" x="661.0283" y="310.9795">_comment [0..1] : string</text><text fill="#000000" font-family="Verdana" font-size="14" lengthAdjust="spacing" textLength="173.4551" x="661.0283" y="327.2764">inspected_by [1] : object</text><text fill="#000000" font-family="Verdana" font-size="14" lengthAdjust="spacing" textLength="167.3984" x="661.0283" y="343.5732">inspected_at [1] : string</text><text fill="#000000" font-family="Verdana" font-size="14" lengthAdjust="spacing" textLength="246.0801" x="661.0283" y="359.8701">verdicts [1] : map&lt;map&lt;object&gt;&gt;</text></g><!--class who_iris_library_folio_withheld_v1_Gate--><g id="elem_who_iris_library_folio_withheld_v1_Gate"><rect codeLine="30" fill="#F4F4F1" height="80.8594" id="who_iris_library_folio_withheld_v1_Gate" rx="2.5" ry="2.5" style="stroke:#000000;stroke-width:1.0;" width="172.7695" x="964.4102" y="443.4375"/><ellipse cx="977.4102" cy="463.5703" fill="#FFFFFF" rx="9" ry="9" style="stroke:#000000;stroke-width:1.0;"/><path d="M980.3789,469.2109 Q979.8008,469.5078 979.1602,469.6484 Q978.5195,469.8047 977.8164,469.8047 Q975.3164,469.8047 973.9883,468.1641 Q972.6758,466.5078 972.6758,463.3828 Q972.6758,460.2578 973.9883,458.6016 Q975.3164,456.9453 977.8164,456.9453 Q978.5195,456.9453 979.1602,457.1016 Q979.8164,457.2578 980.3789,457.5547 L980.3789,460.2734 Q979.7539,459.6953 979.1602,459.4297 Q978.5664,459.1484 977.9414,459.1484 Q976.5977,459.1484 975.9102,460.2266 Q975.2227,461.2891 975.2227,463.3828 Q975.2227,465.4766 975.9102,466.5547 Q976.5977,467.6172 977.9414,467.6172 Q978.5664,467.6172 979.1602,467.3516 Q979.7539,467.0703 980.3789,466.4922 L980.3789,469.2109 Z " fill="#000000"/><text fill="#000000" font-family="Verdana" font-size="12" font-style="italic" lengthAdjust="spacing" textLength="148.7695" x="987.4102" y="459.5762">&#171;json: WithheldSchema&#187;</text><text fill="#000000" font-family="Verdana" font-size="14" lengthAdjust="spacing" textLength="33.5303" x="1045.0298" y="475.4014">Gate</text><line style="stroke:#000000;stroke-width:1.0;" x1="965.4102" x2="1136.1797" y1="483.7031" y2="483.7031"/><text fill="#000000" font-family="Verdana" font-size="14" lengthAdjust="spacing" textLength="109.6553" x="970.4102" y="500.6982">gate [1] : string</text><text fill="#000000" font-family="Verdana" font-size="14" lengthAdjust="spacing" textLength="126.7041" x="970.4102" y="516.9951">verdict [1] : string</text></g><!--class who_iris_library_folio_withheld_v1_Path--><g id="elem_who_iris_library_folio_withheld_v1_Path"><rect codeLine="34" fill="#F4F4F1" height="113.4531" id="who_iris_library_folio_withheld_v1_Path" rx="2.5" ry="2.5" style="stroke:#000000;stroke-width:1.0;" width="172.7695" x="964.4102" y="253.7188"/><ellipse cx="977.4102" cy="273.8516" fill="#FFFFFF" rx="9" ry="9" style="stroke:#000000;stroke-width:1.0;"/><path d="M980.3789,279.4922 Q979.8008,279.7891 979.1602,279.9297 Q978.5195,280.0859 977.8164,280.0859 Q975.3164,280.0859 973.9883,278.4453 Q972.6758,276.7891 972.6758,273.6641 Q972.6758,270.5391 973.9883,268.8828 Q975.3164,267.2266 977.8164,267.2266 Q978.5195,267.2266 979.1602,267.3828 Q979.8164,267.5391 980.3789,267.8359 L980.3789,270.5547 Q979.7539,269.9766 979.1602,269.7109 Q978.5664,269.4297 977.9414,269.4297 Q976.5977,269.4297 975.9102,270.5078 Q975.2227,271.5703 975.2227,273.6641 Q975.2227,275.7578 975.9102,276.8359 Q976.5977,277.8984 977.9414,277.8984 Q978.5664,277.8984 979.1602,277.6328 Q979.7539,277.3516 980.3789,276.7734 L980.3789,279.4922 Z " fill="#000000"/><text fill="#000000" font-family="Verdana" font-size="12" font-style="italic" lengthAdjust="spacing" textLength="148.7695" x="987.4102" y="269.8574">&#171;json: WithheldSchema&#187;</text><text fill="#000000" font-family="Verdana" font-size="14" lengthAdjust="spacing" textLength="31.3838" x="1046.103" y="285.6826">Path</text><line style="stroke:#000000;stroke-width:1.0;" x1="965.4102" x2="1136.1797" y1="293.9844" y2="293.9844"/><text fill="#000000" font-family="Verdana" font-size="14" lengthAdjust="spacing" textLength="109.915" x="970.4102" y="310.9795">path [1] : string</text><text fill="#000000" font-family="Verdana" font-size="14" lengthAdjust="spacing" textLength="125.7676" x="970.4102" y="327.2764">reason [1] : string</text><text fill="#000000" font-family="Verdana" font-size="14" lengthAdjust="spacing" textLength="137.1152" x="970.4102" y="343.5732">gates [1..*] : Gate[]</text><text fill="#000000" font-family="Verdana" font-size="14" lengthAdjust="spacing" textLength="144.1221" x="970.4102" y="359.8701">record [0..1] : object</text></g><!--class who_iris_library_folio_withheld_v1_folio_withheld_v1--><g id="elem_who_iris_library_folio_withheld_v1_folio_withheld_v1"><rect codeLine="40" fill="#F4F4F1" height="97.1563" id="who_iris_library_folio_withheld_v1_folio_withheld_v1" rx="2.5" ry="2.5" style="stroke:#000000;stroke-width:1.0;" width="237.9619" x="931.814" y="80.2969"/><ellipse cx="974.6602" cy="100.4297" fill="#FFFFFF" rx="9" ry="9" style="stroke:#000000;stroke-width:1.0;"/><path d="M977.6289,106.0703 Q977.0508,106.3672 976.4102,106.5078 Q975.7695,106.6641 975.0664,106.6641 Q972.5664,106.6641 971.2383,105.0234 Q969.9258,103.3672 969.9258,100.2422 Q969.9258,97.1172 971.2383,95.4609 Q972.5664,93.8047 975.0664,93.8047 Q975.7695,93.8047 976.4102,93.9609 Q977.0664,94.1172 977.6289,94.4141 L977.6289,97.1328 Q977.0039,96.5547 976.4102,96.2891 Q975.8164,96.0078 975.1914,96.0078 Q973.8477,96.0078 973.1602,97.0859 Q972.4727,98.1484 972.4727,100.2422 Q972.4727,102.3359 973.1602,103.4141 Q973.8477,104.4766 975.1914,104.4766 Q975.8164,104.4766 976.4102,104.2109 Q977.0039,103.9297 977.6289,103.3516 L977.6289,106.0703 Z " fill="#000000"/><text fill="#000000" font-family="Verdana" font-size="12" font-style="italic" lengthAdjust="spacing" textLength="148.7695" x="990.1602" y="96.4355">&#171;json: WithheldSchema&#187;</text><text fill="#000000" font-family="Verdana" font-size="14" lengthAdjust="spacing" textLength="116.7646" x="1006.1626" y="112.2607">folio-withheld/v1</text><line style="stroke:#000000;stroke-width:1.0;" x1="932.814" x2="1168.7759" y1="120.5625" y2="120.5625"/><text fill="#000000" font-family="Verdana" font-size="14" lengthAdjust="spacing" textLength="225.9619" x="937.814" y="137.5576">$schema [1] : 'folio-withheld/v1'</text><text fill="#000000" font-family="Verdana" font-size="14" lengthAdjust="spacing" textLength="169.4082" x="937.814" y="153.8545">_comment [0..1] : string</text><text fill="#000000" font-family="Verdana" font-size="14" lengthAdjust="spacing" textLength="135.2285" x="937.814" y="170.1514">paths [0..*] : Path[]</text></g><line style="stroke:#000000;stroke-width:1.0;" x1="1050.7949" x2="1050.7949" y1="367.1719" y2="443.4375"/><polygon fill="#000000" points="1050.7949,367.1719,1046.7949,373.1719,1050.7949,379.1719,1054.7949,373.1719,1050.7949,367.1719" style="stroke:#000000;stroke-width:1.0;"/><text fill="#000000" font-family="Verdana" font-size="13" lengthAdjust="spacing" textLength="36.0864" x="1010.7085" y="401.2388">gates</text><text fill="#000000" font-family="Verdana" font-size="13" lengthAdjust="spacing" textLength="23.0356" x="1053.7949" y="438.3716">1..*</text><line style="stroke:#000000;stroke-width:1.0;" x1="1050.7949" x2="1050.7949" y1="177.4531" y2="253.7188"/><polygon fill="#000000" points="1050.7949,177.4531,1046.7949,183.4531,1050.7949,189.4531,1054.7949,183.4531,1050.7949,177.4531" style="stroke:#000000;stroke-width:1.0;"/><text fill="#000000" font-family="Verdana" font-size="13" lengthAdjust="spacing" textLength="36.3276" x="1010.4673" y="211.52">paths</text><text fill="#000000" font-family="Verdana" font-size="13" lengthAdjust="spacing" textLength="23.0356" x="1053.7949" y="248.6528">0..*</text><!--SRC=[dLDTYzf057tFhxXh2mjBuohqoOhGbvPzAnNQ1v4m9jTaribCc9aeTkj_xtp5ZObsqoA2tdDovvmp9tUL97b9W96Zg3KWsqLtki0IeMA4yaZjAA-892MaZ2ZrMMj9DxN6frJm9Vs5C6bHL44oSQ0yXorX2bj8HT8ToN6fZmn1Oge9pnb61SqGiApq4KhKXSXK50KgZ0w5YAcawf7HZIJoE0AYeDhbYG4I2oG1WFay_5eiu2K2BnL6My6eY3EHrYLo7TFIh5MF-wbRr5sIE7RIi1FFJlRJcu0vzba9FeCdDraQBocHozIaHuoGTzkFvZDrWW3UApU7rNGDCxY_9UtUaSqyeLdWAfCupztSqy9SR9vDZgir_0PUC-O8DSzGeomfnooHI8myM4t6uyj5fsv4Rc-yHvdHLB-La2Cd3TddeDKCVlZ95ygmvvvoLHcnHjJc6EJNVCV5WNTWelkkIUWSRPlvZgcGsTpJFi3BnH7dxPykLZTRuRHmYniFuSZEoixVO6-nk1QWCaSOUKCZ3FHsYBUHSysM7clb_2zTkoBHbor9HMbBUAKeLo_Ezsx0lNNYBKarjr__V3V7hqJZto8xK5qKo38RbUMUK_aPW1jPv9PxIreNQEdvHdGnL8_b3jLJMMvFJ_EgTkTMlSrlF7wmY3M-MeSdR3jVx-nyAxrkDahVw6JRK6yorDtLvhK436YS3KWvn5cssJhBf-WKHKCluo6EOMHJ6mtkqyo77VrNFEwyoT3pdCIPT_e7]--></g></svg>